<svg xmlns="http://www.w3.org/2000/svg" viewBox="1100 5400 26500 9800" fill="#1a73e8">
 <path d="M16204.66 10424.98c103.8,0 208.55,16.16 280.92,-24.54 78.67,-44.24 62.18,-96.77 146.74,-158.72 90.68,78.77 138.09,156.45 180.67,277.58 83.56,237.59 72.7,589.82 8.37,827.88 -84.69,313.33 -370.23,295.59 -423.78,76.29 -81.64,-334.33 135.2,-374.06 -192.92,-998.49zm7515.05 -916.43c73.6,-307.49 -0.43,-280.1 -244.38,-397.16 108.03,-404.61 1313.58,-611.25 1313.58,-274.93 0,344 -110.3,243.59 -567.75,348.72 -238.42,54.81 -334.72,211.69 -501.45,323.37zm-2871.62 183.3c-25.66,-308.51 -134.58,-726.65 -227.6,-994.38 -242.9,-699.25 -763.81,-920.15 -47.34,-991.34 413.68,-41.13 838.36,-190.08 1187.33,-370.66 458.39,-237.25 917.01,-394.12 1423.64,-193.47 114.27,45.24 107.56,22.04 169,105.9 -902.69,20.13 -1444.05,536.24 -1812.2,1273.24 -111.38,222.99 -531.59,1062.71 -692.83,1170.71zm6476.37 -2749.42c805.34,0 407.01,567.56 915.43,948.08 162.95,121.92 430.78,253.33 243.58,546.95 -3.1,4.92 -63.54,71.7 -73.89,78.85 -142.92,98.57 -211.07,12.22 -528.77,-175.07 -750.21,-442.37 -1513.26,250.84 -1839.4,250.84 -399.89,0 -87.47,-701.42 520.8,-854.74 347.25,-87.53 1277.72,279.35 762.25,-794.91zm-3207.6 -336.07c-1225.29,0 -1174.99,-634.41 -2841.53,121.75 -576.54,261.59 -1188.09,370.62 -1819.99,471.22 -300.81,47.88 -348.54,82.26 -348.54,354.07 0,260.69 126.61,448.64 231.49,623.88 555.48,927.62 824.25,2296.45 338.96,3337.47 -74.7,160.17 -150.42,302.39 -232.59,439.51 -45.38,75.77 -77.6,131.77 -129.93,206.14 -67.36,95.71 -106.33,100.08 -116.29,219.73 222.88,-51.92 410.87,-188.64 557.57,-328.38 154.76,-147.35 315.61,-289.59 450.59,-465.88l406.43 -510.02c433.15,-509.43 796.7,-1018.5 1483.63,-1265.77 479.84,-172.73 1202.67,-389.97 694.16,449.76 -434.53,717.59 -1170.59,1348.03 -1875.61,1790.25 -335.75,210.58 -833.02,480.75 -1201.63,631.32 -251.1,102.54 -1093.56,462.46 -1370.49,462.46 -116.06,0 -744.61,-602.53 -834.77,-723.26 -224.76,-301.02 40.48,-521.3 40.48,-1445.74 0,-628.11 -143.46,-1169.48 -396.9,-1680.4 -629,-1268.04 -2008.58,-1682.72 -3338.22,-1855.12 -601.94,-78.05 -1364.31,-9.1 -1916.72,83.19 -299.51,50.01 -563.96,112.94 -844.49,194.2 -394.91,114.38 -750.13,273.93 -1128.01,429.98 -681.98,281.66 -707.6,489.44 -1797.26,799.39 -1272.01,361.78 -2838.68,304.12 -4070.1,-59.5 -351.08,-103.66 -628.37,-201.66 -910.19,-372.87 -452.79,-275.01 -694.07,-349.38 -1239.15,-349.38 -314.64,0 -947.03,278.31 -947.03,549.89 0,199.96 149.41,336.06 336.03,336.06 174.67,0 464.15,-244.41 824.81,-244.41 327.99,0 608.17,219.99 842.22,349.19 273.33,150.89 567.6,252.35 872.09,349.89 1943.97,622.61 4140.25,395.52 5953.63,-515.64 113.18,-56.87 200.18,-104.54 319.79,-169.01 118.13,-63.65 238.5,-114.99 352.62,-166.7 885.27,-401.19 1907.24,-550.34 2932.24,-550.34 1028.22,0 1872.08,266.2 2605.67,815.79 149.91,112.29 571.42,438.9 571.42,620 0,324.37 -497.24,427.7 -794.26,427.7 -300.17,0 -544.48,-124.41 -784.06,-254.63 -236.48,-128.56 -406.56,-290.78 -638.39,-430.84 -1237.85,-747.98 -3537.61,-488.98 -4717.9,135.59 45.21,169.33 188.95,258.92 312.06,360.02 291.51,239.29 604.22,345.91 1001.55,342.6 222.77,-1.88 444.38,39.11 644.35,58.27 798.7,76.52 1555.47,309.47 2145.91,603.46 618,307.7 1103.33,704.82 1480.56,1268.84 302.81,452.71 517.09,1704.74 1044.67,1704.74 728.67,0 1006.89,-181.16 1737.22,370.66 403.75,305.08 1293.66,1094.65 1842.86,673.86 639.07,-489.59 -258.28,-584.84 -525.17,-983.43 134.27,-11.15 189.72,-54.99 301.64,-95.47 963.56,-348.44 1914.74,-788.63 2701.61,-1453.04 465.01,-392.63 706.11,-658.89 1113.22,-1086.35l552.99 -638.42c542.91,-680.5 1158.9,-974.42 1955.69,-1221.4 428.31,-132.78 1115.92,-240.41 1623.08,-240.41 343.89,0 301.21,244.42 488.76,244.42 183,0 269.85,-313.94 511.93,-526.76 193.58,-170.18 435.1,-328.76 435.1,-664.64 0,-236.96 -402.49,-520.73 -541.8,-680.18 -233.73,-267.47 10.21,-526.06 -397.18,-855.35 -233.45,-188.71 -591.92,-210.6 -810.94,-411 -302.57,-276.82 -32.25,-650.15 -693.99,-650.15 -573.76,0 -548.33,1069.19 -2443.9,1069.19zm-9531.29 8156.59c0,265.63 147.72,360.49 369.22,366.58l48.53 0c333.79,-8.87 809.96,-190.18 1207.62,-299.22 258.98,-71.01 975.27,-257.5 1215.68,-372.86 -227.35,-339.52 -1045.6,-310.38 -1423.7,-201.69 -206.45,59.31 -276.74,118.09 -452.06,189.42 -370.27,150.64 -965.29,76.85 -965.29,317.77z"/>
</svg>
